<?xml version="1.0" encoding="utf-8"?>
<!-- Generator: Adobe Illustrator 16.0.0, SVG Export Plug-In . SVG Version: 6.00 Build 0)  -->
<!DOCTYPE svg PUBLIC "-//W3C//DTD SVG 1.0//EN" "http://www.w3.org/TR/2001/REC-SVG-20010904/DTD/svg10.dtd">
<svg version="1.0" xmlns="http://www.w3.org/2000/svg" xmlns:xlink="http://www.w3.org/1999/xlink" x="0px" y="0px"
	 width="553.725px" height="503.268px" viewBox="0 0 553.725 503.268" enable-background="new 0 0 553.725 503.268"
	 xml:space="preserve">
<g id="Background">
	<g opacity="0.6">
		<g>
			<path fill="#FFFFFF" d="M501.187,264.329c0.206-4.161,0.313-8.348,0.313-12.561c0-138.071-111.929-250-250-250
				s-250,111.929-250,250c0,3.424,0.088,6.828,0.225,10.219l15.215-7.67c0.04,3.382,0.167,6.744,0.349,10.09l-14.878,7.5
				c10.256,128.652,117.899,229.861,249.19,229.861c130.511,0,237.646-100.015,248.988-227.576l-15-7.561
				c0.21-3.297,0.368-6.608,0.44-9.941L501.187,264.329z"/>
		</g>
		<g>
			<path fill="none" stroke="#000000" stroke-width="3" stroke-miterlimit="10" d="M501.187,264.329
				c0.206-4.161,0.313-8.348,0.313-12.561c0-138.071-111.929-250-250-250s-250,111.929-250,250c0,3.424,0.088,6.828,0.225,10.219
				l15.215-7.67c0.04,3.382,0.167,6.744,0.349,10.09l-14.878,7.5c10.256,128.652,117.899,229.861,249.19,229.861
				c130.511,0,237.646-100.015,248.988-227.576l-15-7.561c0.21-3.297,0.368-6.608,0.44-9.941L501.187,264.329z"/>
		</g>
	</g>
	<rect x="2.725" fill="none" width="551" height="502"/>
</g>
<g id="CliffDetectors">
	<path id="CliffLeft" fill="#FF931E" d="M55.595,212.545c-1.473,4.117-5.945,6.24-9.991,4.741l-0.473-0.175
		c-4.046-1.499-6.132-6.051-4.66-10.168l13.933-38.955c1.473-4.117,5.945-6.24,9.991-4.741l0.473,0.175
		c4.046,1.499,6.132,6.051,4.66,10.168L55.595,212.545z"/>
	<path id="CliffRight" fill="#FF931E" d="M444.404,212.545c1.473,4.117,5.945,6.24,9.991,4.741l0.473-0.175
		c4.046-1.499,6.132-6.051,4.66-10.168l-13.933-38.955c-1.473-4.117-5.945-6.24-9.991-4.741l-0.473,0.175
		c-4.046,1.499-6.132,6.051-4.66,10.168L444.404,212.545z"/>
	<path id="CliffFrontLeft" fill="#FF931E" d="M163.401,70.14c-4.091,1.542-8.604-0.494-10.08-4.547l-0.173-0.474
		c-1.477-4.054,0.644-8.59,4.735-10.133l38.713-14.591c4.091-1.542,8.604,0.494,10.08,4.547l0.173,0.474
		c1.477,4.054-0.644,8.59-4.735,10.133L163.401,70.14z"/>
	<path id="CliffFrontRight" fill="#FF931E" d="M341.598,70.14c4.091,1.542,8.604-0.494,10.08-4.547l0.173-0.474
		c1.477-4.054-0.645-8.59-4.735-10.133l-38.714-14.591c-4.091-1.542-8.604,0.494-10.08,4.547l-0.173,0.474
		c-1.477,4.054,0.645,8.59,4.735,10.133L341.598,70.14z"/>
</g>
<g id="Wheels">
	<path id="WheelRight" fill="#FF1D25" d="M446.725,320c0,6.627-5.373,12-12,12h-9c-6.627,0-12-5.373-12-12v-76
		c0-6.627,5.373-12,12-12h9c6.627,0,12,5.373,12,12V320z"/>
	<path id="WheelLeft" fill="#FF1D25" d="M86.725,320c0,6.627-5.373,12-12,12h-9c-6.627,0-12-5.373-12-12v-76c0-6.627,5.373-12,12-12
		h9c6.627,0,12,5.373,12,12V320z"/>
	<circle id="CasterWheel" fill="#FF1D25" cx="251.725" cy="43" r="24.82"/>
</g>
<g id="Motors">
	<path id="MainBrush" fill="#FF7BAC" d="M399.725,359c0,6.627-5.344,12-11.937,12H115.225c-6.593,0-11.5-5.373-11.5-12v-37
		c0-6.627,4.907-12,11.5-12h272.563c6.593,0,11.937,5.373,11.937,12V359z"/>
	<path id="Vacuum" fill="#FF7BAC" d="M359.725,289c0,6.627-5.373,12-12,12h-192c-6.627,0-12-5.373-12-12v-36c0-6.627,5.373-12,12-12
		h192c6.627,0,12,5.373,12,12V289z"/>
	<path id="SideBrush" fill="#FF7BAC" d="M406.38,146.28l30.509-38.754c0.125,0.027,0.25,0.058,0.378,0.077
		c1.884,0.285,3.692-0.342,4.986-1.547l48.274,7.301c1.626,0.246,3.159-0.968,3.468-3.015c0.31-2.048-0.795-3.66-2.421-3.906
		l-47.953-7.252c-0.814-1.781-2.479-3.131-4.56-3.445c-0.147-0.022-0.294-0.033-0.441-0.044l-18.073-45.21
		c-0.611-1.526-2.434-2.234-4.356-1.466c-1.923,0.769-2.754,2.538-2.144,4.064l18.542,46.383c-0.164,0.414-0.288,0.85-0.357,1.308
		c-0.076,0.503-0.08,1-0.033,1.484c-0.13,0.112-0.255,0.233-0.365,0.372l-30.954,39.322c-1.017,1.292-0.719,3.225,0.909,4.505
		C403.414,147.737,405.363,147.572,406.38,146.28z"/>
</g>
<g id="Bumpers">
	<path id="BumperLeft" fill="#7AC943" d="M6.512,253.974c-0.008-0.75-0.012-1.484-0.012-2.206C6.5,123.938,105,17.684,231.725,7.571
		v16.378c-55.018,4.78-106.08,29.456-144.223,69.804c-38.68,40.916-60.486,94.233-61.598,150.445L6.512,253.974z"/>
	<path id="BumperRight" fill="#7AC943" d="M477.145,246.61c-0.525-56.785-22.148-110.76-61.023-152.206
		c-38.102-40.621-89.227-65.514-144.396-70.417V7.61C398.196,17.941,496.5,124.175,496.5,251.768c0,1.515-0.015,3.043-0.043,4.578
		L477.145,246.61z"/>
	<circle id="VirtualWall" fill="#7AC943" cx="251.5" cy="16.217" r="12.5"/>
	<circle id="Wall" fill="#7AC943" cx="529.5" cy="249.217" r="12.5"/>
</g>
<g id="Roomba">
	<path fill="none" stroke="#333333" stroke-width="3" stroke-miterlimit="10" d="M30.864,247.297
		c0.773-121.202,99.252-219.22,220.636-219.22c121.863,0,220.654,98.791,220.654,220.655c0,0.319-0.011,0.636-0.012,0.956
		l29.044,14.641c0.206-4.161,0.313-8.348,0.313-12.561c0-138.071-111.929-250-250-250s-250,111.929-250,250
		c0,3.424,0.088,6.828,0.225,10.219L30.864,247.297z"/>
	<path fill="none" stroke="#333333" stroke-width="3" stroke-miterlimit="10" d="M471.981,259.771
		c-5.752,116.734-102.218,209.616-220.38,209.616c-118.95,0-215.9-94.128-220.468-211.958L2.411,271.907
		c10.256,128.652,117.899,229.861,249.19,229.861c130.511,0,237.646-100.015,248.988-227.576L471.981,259.771z"/>
	<path fill="none" stroke="#333333" stroke-width="3" stroke-miterlimit="10" d="M318.54,326.5c0,5.029-3.943,9-8.808,9H193.27
		c-4.865,0-8.809-3.971-8.809-9l0,0c0-5.03,3.943-9,8.809-9h116.462C314.597,317.5,318.54,321.47,318.54,326.5L318.54,326.5z"/>
	<circle fill="none" stroke="#333333" stroke-width="3" stroke-miterlimit="10" cx="251.5" cy="16.217" r="12.769"/>
	<circle fill="none" stroke="#333333" stroke-width="3" stroke-miterlimit="10" cx="251.5" cy="251.487" r="28.081"/>
	<circle fill="none" stroke="#333333" stroke-width="3" stroke-miterlimit="10" cx="251.5" cy="251.487" r="25.045"/>
	<path fill="none" stroke="#333333" stroke-width="3" stroke-miterlimit="10" d="M134.653,249.5c0.594-35,15.953-67,40.024-88
		h155.669c24.072,21,39.431,53,40.025,88h29.341c-0.688-46-22.673-88-56.634-114H159.922c-33.96,26-55.947,68-56.634,114H134.653z"
		/>
	<path fill="none" stroke="#333333" stroke-width="3" stroke-miterlimit="10" d="M370.376,253.5
		c-1.018,65-53.393,118.102-117.865,118.102S135.666,318.5,134.648,253.5h-31.371c0.971,81,66.954,146.436,148.223,146.436
		c81.269,0,147.251-65.436,148.222-146.436H370.376z"/>
</g>
</svg>
