<?xml version="1.0" encoding="utf-8"?>
<!-- Generator: Adobe Illustrator 16.0.0, SVG Export Plug-In . SVG Version: 6.00 Build 0)  -->
<!DOCTYPE svg PUBLIC "-//W3C//DTD SVG 1.1//EN" "http://www.w3.org/Graphics/SVG/1.1/DTD/svg11.dtd">
<svg version="1.1" xmlns="http://www.w3.org/2000/svg" xmlns:xlink="http://www.w3.org/1999/xlink" x="0px" y="0px" width="503px"
	 height="503px" viewBox="0 0 503 503" enable-background="new 0 0 503 503" xml:space="preserve">
<g id="couleur">
	<g opacity="0.4">
		<g>
			<path fill="#FFFFFF" d="M501.187,264.061c0.206-4.161,0.313-8.348,0.313-12.561c0-138.071-111.929-250-250-250
				s-250,111.929-250,250c0,3.424,0.088,6.828,0.225,10.219l15.215-7.67c0.04,3.382,0.167,6.744,0.349,10.09l-14.878,7.5
				C12.667,400.291,120.31,501.5,251.601,501.5c130.511,0,237.646-100.015,248.988-227.576l-15-7.561
				c0.21-3.297,0.368-6.608,0.44-9.941L501.187,264.061z"/>
		</g>
		<g>
			<path opacity="0.6" fill="none" stroke="#000000" stroke-width="3" stroke-miterlimit="10" d="M501.187,264.061
				c0.206-4.161,0.313-8.348,0.313-12.561c0-138.071-111.929-250-250-250s-250,111.929-250,250c0,3.424,0.088,6.828,0.225,10.219
				l15.215-7.67c0.04,3.382,0.167,6.744,0.349,10.09l-14.878,7.5C12.667,400.291,120.31,501.5,251.601,501.5
				c130.511,0,237.646-100.015,248.988-227.576l-15-7.561c0.21-3.297,0.368-6.608,0.44-9.941L501.187,264.061z"/>
		</g>
	</g>
</g>
<g id="Calque_1">
	<path fill="none" stroke="#333333" stroke-width="3" stroke-miterlimit="10" d="M30.864,247.029
		C31.637,125.827,130.116,27.81,251.5,27.81c121.863,0,220.654,98.791,220.654,220.655c0,0.319-0.011,0.636-0.012,0.956
		l29.044,14.641c0.206-4.161,0.313-8.348,0.313-12.561c0-138.071-111.929-250-250-250s-250,111.929-250,250
		c0,3.424,0.088,6.828,0.225,10.219L30.864,247.029z"/>
	<path fill="none" stroke="#333333" stroke-width="3" stroke-miterlimit="10" d="M471.981,259.502
		c-5.752,116.734-102.218,209.616-220.38,209.616c-118.95,0-215.9-94.128-220.468-211.958L2.411,271.639
		C12.667,400.291,120.31,501.5,251.601,501.5c130.511,0,237.646-100.015,248.988-227.576L471.981,259.502z"/>
	<path fill="none" stroke="#333333" stroke-width="3" stroke-miterlimit="10" d="M318.54,326.232c0,5.029-3.943,9-8.808,9H193.27
		c-4.865,0-8.809-3.971-8.809-9l0,0c0-5.03,3.943-9,8.809-9h116.462C314.597,317.232,318.54,321.202,318.54,326.232L318.54,326.232z
		"/>
	<circle fill="none" stroke="#333333" stroke-width="3" stroke-miterlimit="10" cx="251.5" cy="15.949" r="12.769"/>
	<circle fill="none" stroke="#333333" stroke-width="3" stroke-miterlimit="10" cx="251.5" cy="251.219" r="28.081"/>
	<circle fill="none" stroke="#333333" stroke-width="3" stroke-miterlimit="10" cx="251.5" cy="251.219" r="25.045"/>
	<path fill="none" stroke="#333333" stroke-width="3" stroke-miterlimit="10" d="M134.653,249.232c0.594-35,15.953-67,40.024-88
		h155.669c24.072,21,39.431,53,40.025,88h29.341c-0.688-46-22.673-88-56.634-114H159.922c-33.96,26-55.947,68-56.634,114H134.653z"
		/>
	<path fill="none" stroke="#333333" stroke-width="3" stroke-miterlimit="10" d="M370.376,253.232
		c-1.018,65-53.393,118.102-117.865,118.102s-116.846-53.102-117.863-118.102h-31.371c0.971,81,66.954,146.436,148.223,146.436
		c81.269,0,147.251-65.436,148.222-146.436H370.376z"/>
</g>
</svg>
