<?xml version="1.0" encoding="utf-8"?>
<!-- Generator: Adobe Illustrator 16.0.0, SVG Export Plug-In . SVG Version: 6.00 Build 0)  -->
<!DOCTYPE svg PUBLIC "-//W3C//DTD SVG 1.0//EN" "http://www.w3.org/TR/2001/REC-SVG-20010904/DTD/svg10.dtd">
<svg version="1.0" id="Calque_1" xmlns="http://www.w3.org/2000/svg" xmlns:xlink="http://www.w3.org/1999/xlink" x="0px" y="0px"
	 width="353px" height="353px" viewBox="0 0 353 353" enable-background="new 0 0 353 353" xml:space="preserve">
<g>
	<circle fill="#333333" cx="176.5" cy="176.303" r="164.217"/>
	<path fill="#1A1A1A" stroke="#000000" stroke-width="3" stroke-miterlimit="10" d="M22.055,173.371
		C22.596,88.529,91.531,19.917,176.5,19.917c85.304,0,154.458,69.153,154.458,154.458c0,0.223-0.007,0.445-0.008,0.669
		l20.331,10.249c0.144-2.913,0.219-5.844,0.219-8.792c0-96.65-78.351-175-175-175s-175,78.35-175,175
		c0,2.397,0.062,4.779,0.157,7.153L22.055,173.371z"/>
	<path fill="#1A1A1A" stroke="#000000" stroke-width="3" stroke-miterlimit="10" d="M330.837,182.102
		c-4.027,81.714-71.553,146.731-154.266,146.731c-83.265,0-151.13-65.889-154.328-148.371L2.138,190.597
		C9.317,280.653,84.667,351.5,176.571,351.5c91.358,0,166.352-70.01,174.292-159.303L330.837,182.102z"/>
	<path fill="#666666" stroke="#000000" stroke-width="3" stroke-miterlimit="10" d="M223.428,227.232c0,3.521-2.76,6-6.166,6
		h-81.523c-3.406,0-6.166-2.479-6.166-6l0,0c0-3.521,2.76-6,6.166-6h81.523C220.667,221.232,223.428,223.71,223.428,227.232
		L223.428,227.232z"/>
	<circle fill="#4D4D4D" stroke="#000000" stroke-width="3" stroke-miterlimit="10" cx="176.5" cy="11.614" r="8.938"/>
	<circle fill="#00FF00" stroke="#00FF00" stroke-width="2" stroke-miterlimit="10" cx="176.5" cy="176.303" r="19.656"/>
	<circle fill="#4D4D4D" stroke="#000000" stroke-width="2" stroke-miterlimit="10" cx="176.5" cy="176.303" r="17.531"/>
	<path fill="#1A1A1A" stroke="#000000" stroke-width="3" stroke-miterlimit="10" d="M94.707,173.232c0.416-24,11.167-47,28.017-61
		h108.969c16.851,14,27.601,37,28.017,61h20.539c-0.481-32-15.871-61-39.644-80H112.396c-23.772,19-39.163,48-39.644,80H94.707z"/>
	<path fill="#1A1A1A" stroke="#000000" stroke-width="3" stroke-miterlimit="10" d="M259.713,176.232
		c-0.712,46-37.375,82.67-82.505,82.67c-45.13,0-81.792-36.67-82.504-82.67H72.745c0.68,57,46.868,102.504,103.756,102.504
		s103.076-45.504,103.755-102.504H259.713z"/>
</g>
</svg>
